HIERARCHY
ROOT joint_Root
{
	OFFSET 0.0 0.0 0.0
	CHANNELS 6 Xposition Yposition Zposition Zrotation Xrotation Yrotation 
	JOINT Hips
	{
		OFFSET 4.5925 91.4895 -427.239
		CHANNELS 6 Xposition Yposition Zposition Zrotation Xrotation Yrotation 
		JOINT Spine
		{
			OFFSET 15.7357 0.0 0.0
			CHANNELS 6 Xposition Yposition Zposition Zrotation Xrotation Yrotation 
			JOINT Chest
			{
				OFFSET 8.98455 -0.406207 0.0
				CHANNELS 6 Xposition Yposition Zposition Zrotation Xrotation Yrotation 
				JOINT Neck
				{
					OFFSET 16.3773 0.0 0.0
					CHANNELS 6 Xposition Yposition Zposition Zrotation Xrotation Yrotation 
					JOINT Head
					{
						OFFSET 6.45672 0.0 0.0
						CHANNELS 6 Xposition Yposition Zposition Zrotation Xrotation Yrotation 
						End Site
						{
							OFFSET 0.0 0.0 0.0
						}
					}
				}
				JOINT Shoulder_L
				{
					OFFSET 12.9942 -0.242716 4.98039
					CHANNELS 6 Xposition Yposition Zposition Zrotation Xrotation Yrotation 
					JOINT UpperArm_L
					{
						OFFSET 5.34809 0.0 0.0
						CHANNELS 6 Xposition Yposition Zposition Zrotation Xrotation Yrotation 
						JOINT LowerArm_L
						{
							OFFSET 24.3286 1.87007e-05 0.0
							CHANNELS 6 Xposition Yposition Zposition Zrotation Xrotation Yrotation 
							JOINT Hand_L
							{
								OFFSET 22.2916 0.0 0.0
								CHANNELS 6 Xposition Yposition Zposition Zrotation Xrotation Yrotation 
								End Site
								{
									OFFSET 0.0 0.0 0.0
								}
							}
						}
					}
				}
				JOINT Shoulder_R
				{
					OFFSET 12.9945 -0.242716 -4.98039
					CHANNELS 6 Xposition Yposition Zposition Zrotation Xrotation Yrotation 
					JOINT UpperArm_R
					{
						OFFSET -5.34813 0.0 0.0
						CHANNELS 6 Xposition Yposition Zposition Zrotation Xrotation Yrotation 
						JOINT LowerArm_R
						{
							OFFSET -24.3289 0.000322201 0.0
							CHANNELS 6 Xposition Yposition Zposition Zrotation Xrotation Yrotation 
							JOINT Hand_R
							{
								OFFSET -22.2915 -0.000108084 0.0
								CHANNELS 6 Xposition Yposition Zposition Zrotation Xrotation Yrotation 
								End Site
								{
									OFFSET 0.0 0.0 0.0
								}
							}
						}
					}
				}
			}
		}
		JOINT UpperLeg_L
		{
			OFFSET -2.19248 -6.46944 0.0
			CHANNELS 6 Xposition Yposition Zposition Zrotation Xrotation Yrotation 
			JOINT LowerLeg_L
			{
				OFFSET 39.0811 0.0 -1.23785e-05
				CHANNELS 6 Xposition Yposition Zposition Zrotation Xrotation Yrotation 
				JOINT Foot_L
				{
					OFFSET 40.9854 0.0 -1.26872e-05
					CHANNELS 6 Xposition Yposition Zposition Zrotation Xrotation Yrotation 
					JOINT Toes_L
					{
						OFFSET 11.7543 0.0 0.0
						CHANNELS 6 Xposition Yposition Zposition Zrotation Xrotation Yrotation 
						End Site
						{
							OFFSET 0.0 0.0 0.0
						}
					}
				}
			}
		}
		JOINT UpperLeg_R
		{
			OFFSET -2.19251 6.46944 0.0
			CHANNELS 6 Xposition Yposition Zposition Zrotation Xrotation Yrotation 
			JOINT LowerLeg_R
			{
				OFFSET -39.0811 -0.00228153 -0.0401928
				CHANNELS 6 Xposition Yposition Zposition Zrotation Xrotation Yrotation 
				JOINT Foot_R
				{
					OFFSET -40.9854 0.0 0.0
					CHANNELS 6 Xposition Yposition Zposition Zrotation Xrotation Yrotation 
					JOINT Toes_R
					{
						OFFSET -11.7543 0.0 0.0
						CHANNELS 6 Xposition Yposition Zposition Zrotation Xrotation Yrotation 
						End Site
						{
							OFFSET 0.0 0.0 0.0
						}
					}
				}
			}
		}
	}
}
MOTION
Frames:	4
Frame Time:	0.0333333
0.000000 0.000000 0.000000 0.000000 0.000000 -0.000000 -2.451540 82.340400 -2.409370 85.700000 3.800230 8.287910 15.735700 0.000005 -0.000001 93.268700 79.015400 -95.505000 8.984550 -0.406207 -0.000000 14.195300 1.112630 -4.613160 16.377300 -0.000001 -0.000001 -3.423060 -8.598510 1.777510 6.456720 -0.000001 -0.000000 -6.043000 -14.723600 11.606700 12.994200 -0.242716 4.980390 -91.579500 4.488330 -70.589500 5.348090 -0.000007 -0.000001 -71.100300 19.310200 -4.073580 24.328600 0.000019 0.000005 1.641670 3.232890 -26.939500 22.291600 -0.000001 0.000005 16.887900 5.275440 0.742452 12.994500 -0.242716 -4.980390 88.796300 6.351180 -79.245100 -5.348130 -0.000001 -0.000004 -69.742700 31.586300 -2.907090 -24.328900 0.000322 -0.000009 -2.358620 -5.403160 -23.611000 -22.291500 -0.000108 -0.000004 21.231400 5.435030 -4.107180 -2.192480 -6.469440 -0.000000 -170.339000 -8.555110 -21.045500 39.081100 -0.000007 -0.000012 -0.354740 0.179067 63.217100 40.985400 -0.000006 -0.000013 1.833620 8.100340 -84.339500 11.754300 -0.000000 0.000003 -0.000278 -0.002437 -16.668600 -2.192510 6.469440 -0.000001 -177.844000 18.635200 161.518000 -39.081100 -0.002282 -0.040193 0.122839 -0.065533 61.289400 -40.985400 0.000008 0.000006 6.846180 0.719559 -84.201200 -11.754300 -0.000006 -0.000006 -1.089390 -1.357650 -16.776800
0.000000 0.000000 0.000000 0.000000 0.000000 -0.000000 -1.523790 84.018200 -1.782510 86.551100 -0.119413 8.042210 15.735700 0.000005 -0.000001 92.549100 79.943900 -94.376600 8.984550 -0.406207 -0.000000 12.342900 0.813404 -3.742420 16.377300 -0.000001 -0.000001 -2.446620 -7.270190 1.497810 6.456720 -0.000001 -0.000000 -5.003540 -12.453400 9.723690 12.994200 -0.242716 4.980390 -91.267600 3.434800 -69.727100 5.348090 -0.000007 -0.000001 -68.918900 16.570000 -5.987320 24.328600 0.000019 0.000005 4.214150 7.822050 -28.421000 22.291600 -0.000001 0.000005 15.148600 5.303840 -0.036993 12.994500 -0.242716 -4.980390 88.857600 5.944310 -79.100400 -5.348130 -0.000001 -0.000004 -70.217200 31.813300 -3.231080 -24.328900 0.000322 -0.000009 -1.551850 -3.734310 -22.571000 -22.291500 -0.000108 -0.000004 19.848900 5.421740 -3.656780 -2.192480 -6.469440 -0.000000 -171.730000 -10.227200 -17.257000 39.081100 -0.000007 -0.000012 -0.340426 0.211610 58.135700 40.985400 -0.000006 -0.000013 1.076710 5.808740 -82.771600 11.754300 -0.000000 0.000003 -0.000296 -0.002573 -16.673500 -2.192510 6.469440 -0.000001 -179.393000 16.514100 163.925000 -39.081100 -0.002282 -0.040193 0.092539 -0.058503 56.776100 -40.985400 0.000008 0.000006 6.928360 3.207570 -81.979800 -11.754300 -0.000006 -0.000006 -1.004480 -1.244420 -16.962300
0.000000 0.000000 0.000000 0.000000 0.000000 -0.000000 -0.763245 86.226600 -1.060320 87.426400 -3.269690 7.470780 15.735700 0.000005 -0.000001 91.635600 81.248600 -92.817200 8.984550 -0.406207 -0.000000 9.735930 0.476287 -2.401980 16.377300 -0.000001 -0.000001 -0.101575 -5.960800 0.774222 6.456720 -0.000001 -0.000000 -3.596630 -9.992230 6.622490 12.994200 -0.242716 4.980390 -90.703900 1.830430 -68.956000 5.348090 -0.000007 -0.000001 -62.837100 9.767160 -13.365900 24.328600 0.000019 0.000005 4.648810 7.736400 -31.147000 22.291600 -0.000001 0.000005 15.868600 5.306640 -0.115061 12.994500 -0.242716 -4.980390 88.965000 5.176350 -78.676100 -5.348130 -0.000001 -0.000004 -71.236000 31.811900 -1.956300 -24.328900 0.000322 -0.000009 -1.536460 -3.674100 -22.699100 -22.291500 -0.000108 -0.000004 19.393500 5.423290 -3.710060 -2.192480 -6.469440 -0.000000 -173.165000 -11.582200 -12.974600 39.081100 -0.000007 -0.000012 -0.320772 0.262092 50.749700 40.985400 -0.000006 -0.000013 0.490233 4.017850 -80.003400 11.754300 -0.000000 0.000003 -0.000246 -0.002204 -16.660200 -2.192510 6.469440 -0.000001 178.924000 16.175100 166.966000 -39.081100 -0.002282 -0.040193 0.065455 -0.051862 50.182700 -40.985400 0.000008 0.000006 7.073030 6.723110 -78.685100 -11.754300 -0.000006 -0.000006 -0.844099 -1.034970 -17.420200
0.000000 0.000000 0.000000 0.000000 0.000000 -0.000000 -0.293961 88.312000 -0.217471 88.169100 -5.635590 7.028170 15.735700 0.000005 -0.000001 90.350400 82.615800 -90.834000 8.984550 -0.406207 -0.000000 7.002640 0.093212 -0.971895 16.377300 -0.000001 -0.000001 3.117590 -5.396690 0.027135 6.456720 -0.000001 -0.000000 -1.556120 -7.801700 3.704300 12.994200 -0.242716 4.980390 -90.001400 0.003321 -69.027600 5.348090 -0.000007 -0.000001 -56.437500 -3.087410 -23.611300 24.328600 0.000019 0.000005 0.837527 1.196750 -35.125900 22.291600 -0.000001 0.000005 19.384900 5.306160 -0.098777 12.994500 -0.242716 -4.980390 89.093600 4.121370 -77.582900 -5.348130 -0.000001 -0.000004 -71.973600 32.466500 -0.480145 -24.328900 0.000322 -0.000009 -1.316420 -3.106580 -22.963200 -22.291500 -0.000108 -0.000004 18.671400 5.425260 -3.775800 -2.192480 -6.469440 -0.000000 -174.201000 -12.919200 -8.406760 39.081100 -0.000007 -0.000012 -0.252400 0.274280 42.621700 40.985400 -0.000006 -0.000013 0.151410 3.060440 -76.794200 11.754300 -0.000000 0.000003 -0.000197 -0.001831 -16.646600 -2.192510 6.469440 -0.000001 177.223000 17.482900 170.539000 -39.081100 -0.002282 -0.040193 0.043154 -0.042747 43.015900 -40.985400 0.000008 0.000006 7.138120 11.008500 -75.219600 -11.754300 -0.000006 -0.000006 -0.677571 -0.826530 -17.992900
